<svg width="1440" height="958" viewBox="0 0 1440 958" fill="none" xmlns="http://www.w3.org/2000/svg">
<g clip-path="url(#clip0)">
<path d="M-1 701.075L33.6389 697.852C68.2778 694.629 137.556 688.182 206.511 667.23C275.628 646.279 344.261 610.822 413.378 611.628C482.333 612.434 551.611 649.502 620.567 666.424C689.683 683.347 758.317 680.124 827.433 685.281C896.389 690.277 965.667 703.815 1034.62 695.918C1103.74 688.182 1172.37 659.172 1241.49 646.601C1310.44 633.869 1379.72 637.737 1414.36 639.51L1449 641.444V968.612H1414.36C1379.72 968.612 1310.44 968.612 1241.49 968.612C1172.37 968.612 1103.74 968.612 1034.62 968.612C965.667 968.612 896.389 968.612 827.433 968.612C758.317 968.612 689.683 968.612 620.567 968.612C551.611 968.612 482.333 968.612 413.378 968.612C344.261 968.612 275.628 968.612 206.511 968.612C137.556 968.612 68.2778 968.612 33.6389 968.612H-1V701.075Z" fill="#0095FF"/>
<path d="M-1 754.26L33.6389 752.648C68.2778 751.037 137.556 747.813 206.511 741.689C275.628 735.403 344.261 726.378 413.378 722.832C482.333 719.287 551.611 721.543 620.567 707.844C689.683 694.145 758.317 664.49 827.433 664.007C896.389 663.523 965.667 691.888 1034.62 703.815C1103.74 715.58 1172.37 710.745 1241.49 716.063C1310.44 721.543 1379.72 737.015 1414.36 744.912L1449 752.648V968.612H1414.36C1379.72 968.612 1310.44 968.612 1241.49 968.612C1172.37 968.612 1103.74 968.612 1034.62 968.612C965.667 968.612 896.389 968.612 827.433 968.612C758.317 968.612 689.683 968.612 620.567 968.612C551.611 968.612 482.333 968.612 413.378 968.612C344.261 968.612 275.628 968.612 206.511 968.612C137.556 968.612 68.2778 968.612 33.6389 968.612H-1V754.26Z" fill="#0089E9"/>
<path d="M-1 710.745L33.6389 726.056C68.2778 741.367 137.556 771.988 206.511 783.754C275.628 795.68 344.261 788.589 413.378 790.2C482.333 791.812 551.611 802.127 620.567 790.039C689.683 777.952 758.317 743.462 827.433 739.755C896.389 736.048 965.667 762.802 1034.62 765.864C1103.74 768.765 1172.37 747.813 1241.49 751.843C1310.44 755.872 1379.72 784.882 1414.36 799.387L1449 813.892V968.612H1414.36C1379.72 968.612 1310.44 968.612 1241.49 968.612C1172.37 968.612 1103.74 968.612 1034.62 968.612C965.667 968.612 896.389 968.612 827.433 968.612C758.317 968.612 689.683 968.612 620.567 968.612C551.611 968.612 482.333 968.612 413.378 968.612C344.261 968.612 275.628 968.612 206.511 968.612C137.556 968.612 68.2778 968.612 33.6389 968.612H-1V710.745Z" fill="#007ED4"/>
<path d="M-1 825.173L33.6389 832.748C68.2778 840.162 137.556 855.311 206.511 863.047C275.628 870.783 344.261 871.428 413.378 857.729C482.333 844.03 551.611 815.987 620.567 816.632C689.683 817.115 758.317 846.125 827.433 850.477C896.389 854.667 965.667 834.36 1034.62 823.239C1103.74 812.28 1172.37 810.668 1241.49 806.317C1310.44 802.126 1379.72 795.035 1414.36 791.651L1449 788.105V968.612H1414.36C1379.72 968.612 1310.44 968.612 1241.49 968.612C1172.37 968.612 1103.74 968.612 1034.62 968.612C965.667 968.612 896.389 968.612 827.433 968.612C758.317 968.612 689.683 968.612 620.567 968.612C551.611 968.612 482.333 968.612 413.378 968.612C344.261 968.612 275.628 968.612 206.511 968.612C137.556 968.612 68.2778 968.612 33.6389 968.612H-1V825.173Z" fill="#0472BF"/>
<path d="M-1 904.145L33.6389 904.628C68.2778 905.273 137.556 906.24 206.511 901.727C275.628 897.215 344.261 886.9 413.378 887.706C482.333 888.512 551.611 900.438 620.567 906.562C689.683 912.687 758.317 913.331 827.433 906.562C896.389 899.793 965.667 885.933 1034.62 875.457C1103.74 864.981 1172.37 857.89 1241.49 861.113C1310.44 864.337 1379.72 877.875 1414.36 884.482L1449 891.252V968.611H1414.36C1379.72 968.611 1310.44 968.611 1241.49 968.611C1172.37 968.611 1103.74 968.611 1034.62 968.611C965.667 968.611 896.389 968.611 827.433 968.611C758.317 968.611 689.683 968.611 620.567 968.611C551.611 968.611 482.333 968.611 413.378 968.611C344.261 968.611 275.628 968.611 206.511 968.611C137.556 968.611 68.2778 968.611 33.6389 968.611H-1V904.145Z" fill="#0967AA"/>
</g>
<defs>
<clipPath id="clip0">
<rect width="1450" height="967" fill="white" transform="translate(-1)"/>
</clipPath>
</defs>
</svg>
