<svg width="1440" height="217" viewBox="0 0 1440 217" fill="none" xmlns="http://www.w3.org/2000/svg">
<path d="M0 144.76H20.5694C41.1389 144.76 82.2778 144.76 123.417 152.162C164.556 159.565 205.694 174.37 246.833 175.521C287.972 176.508 329.111 164.006 370.25 159.894C411.389 155.781 452.528 160.058 493.667 163.184C534.806 166.145 575.944 167.79 617.083 166.145C658.222 164.5 699.361 159.565 740.5 162.032C781.639 164.5 822.778 174.37 863.917 179.305C905.056 184.24 946.194 184.24 987.333 178.482C1028.47 172.725 1069.61 161.21 1110.75 150.846C1151.89 140.318 1193.03 131.106 1234.17 123.375C1275.31 115.643 1316.44 109.721 1357.58 117.617C1398.72 125.513 1439.86 147.557 1460.43 158.414L1481 169.435V0H1460.43C1439.86 0 1398.72 0 1357.58 0C1316.44 0 1275.31 0 1234.17 0C1193.03 0 1151.89 0 1110.75 0C1069.61 0 1028.47 0 987.333 0C946.194 0 905.056 0 863.917 0C822.778 0 781.639 0 740.5 0C699.361 0 658.222 0 617.083 0C575.944 0 534.806 0 493.667 0C452.528 0 411.389 0 370.25 0C329.111 0 287.972 0 246.833 0C205.694 0 164.556 0 123.417 0C82.2778 0 41.1389 0 20.5694 0H0V144.76Z" fill="#0967AA"/>
</svg>
