<svg width="1440" height="951" viewBox="0 0 1440 951" fill="none" xmlns="http://www.w3.org/2000/svg">
<path d="M0 330.2L34.4 316.92C68.8 303.48 137.6 276.92 206.08 261.08C274.72 245.4 342.88 240.6 411.52 238.2C480 235.8 548.8 235.8 617.28 247.48C685.92 259.32 754.08 282.68 822.72 297.88C891.2 313.08 960 320.12 1028.48 315.8C1097.12 311.48 1165.28 296.12 1233.92 305.88C1302.4 315.8 1371.2 351 1405.6 368.6L1440 386.2V-9H1405.6C1371.2 -9 1302.4 -9 1233.92 -9C1165.28 -9 1097.12 -9 1028.48 -9C960 -9 891.2 -9 822.72 -9C754.08 -9 685.92 -9 617.28 -9C548.8 -9 480 -9 411.52 -9C342.88 -9 274.72 -9 206.08 -9C137.6 -9 68.8 -9 34.4 -9H0V330.2Z" fill="#F95F65"/>
<path d="M0 275.8L34.4 282.2C68.8 288.6 137.6 301.4 206.08 304.28C274.72 307.32 342.88 300.28 411.52 291.8C480 283.32 548.8 273.08 617.28 267.32C685.92 261.4 754.08 259.8 822.72 255.32C891.2 250.68 960 243.32 1028.48 245.88C1097.12 248.6 1165.28 261.4 1233.92 262.68C1302.4 264.12 1371.2 253.88 1405.6 248.92L1440 243.8V-9H1405.6C1371.2 -9 1302.4 -9 1233.92 -9C1165.28 -9 1097.12 -9 1028.48 -9C960 -9 891.2 -9 822.72 -9C754.08 -9 685.92 -9 617.28 -9C548.8 -9 480 -9 411.52 -9C342.88 -9 274.72 -9 206.08 -9C137.6 -9 68.8 -9 34.4 -9H0V275.8Z" fill="#F65155"/>
<path d="M0 213.4L34.4 216.28C68.8 219.32 137.6 225.08 206.08 227C274.72 228.92 342.88 226.68 411.52 224.28C480 221.88 548.8 219.32 617.28 213.4C685.92 207.48 754.08 198.52 822.72 194.68C891.2 191 960 192.6 1028.48 193.4C1097.12 194.2 1165.28 194.2 1233.92 196.28C1302.4 198.52 1371.2 202.68 1405.6 204.92L1440 207V-9H1405.6C1371.2 -9 1302.4 -9 1233.92 -9C1165.28 -9 1097.12 -9 1028.48 -9C960 -9 891.2 -9 822.72 -9C754.08 -9 685.92 -9 617.28 -9C548.8 -9 480 -9 411.52 -9C342.88 -9 274.72 -9 206.08 -9C137.6 -9 68.8 -9 34.4 -9H0V213.4Z" fill="#F34145"/>
<path d="M0 93.4L34.4 105.4C68.8 117.4 137.6 141.4 206.08 140.6C274.72 139.8 342.88 114.2 411.52 112.12C480 109.88 548.8 131.32 617.28 145.72C685.92 160.12 754.08 167.48 822.72 159C891.2 150.52 960 125.88 1028.48 125.88C1097.12 125.88 1165.28 150.52 1233.92 149.72C1302.4 148.92 1371.2 122.68 1405.6 109.72L1440 96.6V-9H1405.6C1371.2 -9 1302.4 -9 1233.92 -9C1165.28 -9 1097.12 -9 1028.48 -9C960 -9 891.2 -9 822.72 -9C754.08 -9 685.92 -9 617.28 -9C548.8 -9 480 -9 411.52 -9C342.88 -9 274.72 -9 206.08 -9C137.6 -9 68.8 -9 34.4 -9H0V93.4Z" fill="#EE3034"/>
<path d="M0 93.4L34.4 95.48C68.8 97.72 137.6 101.88 206.08 94.2C274.72 86.52 342.88 66.68 411.52 59C480 51.32 548.8 55.48 617.28 56.12C685.92 56.6 754.08 53.4 822.72 56.92C891.2 60.28 960 70.52 1028.48 77.88C1097.12 85.4 1165.28 90.2 1233.92 84.28C1302.4 78.52 1371.2 61.88 1405.6 53.72L1440 45.4V-9H1405.6C1371.2 -9 1302.4 -9 1233.92 -9C1165.28 -9 1097.12 -9 1028.48 -9C960 -9 891.2 -9 822.72 -9C754.08 -9 685.92 -9 617.28 -9C548.8 -9 480 -9 411.52 -9C342.88 -9 274.72 -9 206.08 -9C137.6 -9 68.8 -9 34.4 -9H0V93.4Z" fill="#E91921"/>
</svg>
